<svg width="32" height="20" viewBox="0 0 32 20" fill="none" xmlns="http://www.w3.org/2000/svg">
<path d="M31.0602 3.4125C32.3102 2.63125 32.3102 1.3625 31.0602 0.581253C29.8102 -0.199997 27.7802 -0.199997 26.5302 0.581253L16.0002 7.16875L5.46018 0.587503C4.21018 -0.193747 2.18018 -0.193747 0.930176 0.587503C-0.319824 1.36875 -0.319824 2.6375 0.930176 3.41875L11.4702 10L0.940176 16.5875C-0.309824 17.3688 -0.309824 18.6375 0.940176 19.4188C2.19018 20.2 4.22018 20.2 5.47018 19.4188L16.0002 12.8313L26.5402 19.4125C27.7902 20.1938 29.8202 20.1938 31.0702 19.4125C32.3202 18.6313 32.3202 17.3625 31.0702 16.5813L20.5302 10L31.0602 3.4125Z" fill="white"/>
</svg>
